# xmcd
#
# Track frame offsets: 
#        150
#        15369
#        35383
#        50489
#        65713
#        85802
#        100934
#        117932
#        133379
#        156575
#        173343
#        189693
#        207080
#        225664
#        242017
#        261078
#        280717
#
# Disc length: 4058 seconds
#
# Revision: 0
# Processed by: cddbd v1.5.2PL0 Copyright (c) Steve Scherf et al.
# Submitted via: ExactAudioCopy v0.95b2
#
DISCID=e80fd811
DTITLE=Possessed - Demos and Rehearsals
DYEAR=2002
DGENRE=Death Metal
TTITLE0=Death Metal (Death Metal 1984 demo tape)
TTITLE1=Evil Warriors (Death Metal 1984 demo tape)
TTITLE2=Burning In Hell (Death Metal 1984 demo tape)
TTITLE3=Death Metal (Death Metal 1984 demo tape)
TTITLE4=Evil Warriors (Death Metal 1984 demo tape)
TTITLE5=Death Metal (Death Metal 1984 demo tape)
TTITLE6=Fallen Angel (Death Metal 1984 demo tape)
TTITLE7=Pentagram (Fallen Angels 1984 rehearsal 7" vinyl)
TTITLE8=Twisted Minds (Fallen Angels 1984 rehearsal 7" vinyl)
TTITLE9=Swing Of The Axe (Fallen Angels 1984 rehearsal 7" vinyl)
TTITLE10=Fallen Angel (Fallen Angels 1984 rehearsal 7" vinyl)
TTITLE11=Swing Of The Axe (Metal Massacre VI 1985 CD)
TTITLE12=The Martyr's Wake (1991 demo tape)
TTITLE13=The Seventh Sign (1991 demo tape)
TTITLE14=The Seventh Sign (1993 demo tape)
TTITLE15=Last Ritual (1993 demo tape)
TTITLE16=Human Extermination (1993 demo tape)
EXTD=
EXTT0=
EXTT1=
EXTT2=
EXTT3=
EXTT4=
EXTT5=
EXTT6=
EXTT7=
EXTT8=
EXTT9=
EXTT10=
EXTT11=
EXTT12=
EXTT13=
EXTT14=
EXTT15=
EXTT16=
PLAYORDER=
